<?xml version="1.0" encoding="UTF-8" standalone="no"?>
<svg
   xmlns:dc="http://purl.org/dc/elements/1.1/"
   xmlns:cc="http://creativecommons.org/ns#"
   xmlns:rdf="http://www.w3.org/1999/02/22-rdf-syntax-ns#"
   xmlns:svg="http://www.w3.org/2000/svg"
   xmlns="http://www.w3.org/2000/svg"
   xmlns:sodipodi="http://sodipodi.sourceforge.net/DTD/sodipodi-0.dtd"
   xmlns:inkscape="http://www.inkscape.org/namespaces/inkscape"
   version="1.1"
   id="svg2"
   width="1200"
   height="1200"
   viewBox="0 0 1200 1200"
   sodipodi:docname="Calendar_font_awesome.svg"
   inkscape:version="1.0.2 (e86c870879, 2021-01-15, custom)">
  <metadata
     id="metadata8">
    <rdf:RDF>
      <cc:Work
         rdf:about="">
        <dc:format>image/svg+xml</dc:format>
        <dc:type
           rdf:resource="http://purl.org/dc/dcmitype/StillImage" />
        <dc:title></dc:title>
      </cc:Work>
    </rdf:RDF>
  </metadata>
  <defs
     id="defs6" />
  <sodipodi:namedview
     pagecolor="#ffffff"
     bordercolor="#666666"
     borderopacity="1"
     objecttolerance="10"
     gridtolerance="10"
     guidetolerance="10"
     inkscape:pageopacity="0"
     inkscape:pageshadow="2"
     inkscape:window-width="1366"
     inkscape:window-height="705"
     id="namedview4"
     showgrid="false"
     inkscape:zoom="0.42985364"
     inkscape:cx="600"
     inkscape:cy="600"
     inkscape:window-x="-8"
     inkscape:window-y="-8"
     inkscape:window-maximized="1"
     inkscape:current-layer="g10" />
  <g
     inkscape:groupmode="layer"
     inkscape:label="Image"
     id="g10">
    <path
       style="fill:#000000;stroke-width:0.294661"
       d="m 498.83104,718.87919 c 37.04768,-0.79595 97.67256,-2.0298 134.72194,-2.7419 37.04939,-0.7121 6.73765,-0.0608 -67.35942,1.44718 -74.09706,1.50804 -104.4102,2.09066 -67.36252,1.29472 z m 203.32532,-4.41807 c 0.20716,-0.0909 0.457,-0.0853 0.5552,0.0124 0.0982,0.0977 -0.0713,0.17206 -0.37665,0.16525 -0.33746,-0.007 -0.40747,-0.0772 -0.17855,-0.17763 z m 1.44096,-0.32933 c 0.20716,-0.0908 0.457,-0.0853 0.5552,0.0124 0.0982,0.0977 -0.0713,0.17206 -0.37665,0.16525 -0.33746,-0.007 -0.40747,-0.0772 -0.17855,-0.17762 z m 3.52878,-1.18003 c 0.29037,-0.2836 2.55247,-1.43545 2.5552,-1.30107 0.003,0.17045 -2.15646,1.40608 -2.46899,1.41244 -0.11247,0.002 -0.15124,-0.0479 -0.0862,-0.11137 z m -285.28966,4.25285 c -0.54859,-0.43687 -0.54516,-0.44245 0.0866,-0.14121 0.36181,0.17255 0.65911,0.37644 0.66067,0.45312 0.005,0.22947 -0.14677,0.16625 -0.74722,-0.31191 z m 288.12885,-5.82641 c -0.002,-0.0824 0.25448,-0.29969 0.56924,-0.48271 0.31476,-0.18302 0.57367,-0.26529 0.57535,-0.18283 0.002,0.0824 -0.25448,0.29969 -0.56925,0.48271 -0.31476,0.18302 -0.57366,0.2653 -0.57534,0.18283 z m -289.47059,4.89526 c -0.36968,-0.46831 -0.35966,-0.47911 0.10696,-0.11546 0.49006,0.38195 0.64839,0.62509 0.41019,0.62994 -0.0601,10e-4 -0.29282,-0.23029 -0.51715,-0.51448 z m 290.89966,-5.80875 c -10e-4,-0.0622 0.22184,-0.30305 0.49579,-0.5351 0.45145,-0.38233 0.46188,-0.37195 0.11159,0.11102 -0.36792,0.50719 -0.60235,0.67092 -0.60738,0.42408 z m -292.07563,4.93267 c -0.36967,-0.4683 -0.35965,-0.4791 0.10697,-0.11546 0.49006,0.38195 0.64838,0.6251 0.41019,0.62995 -0.0601,10e-4 -0.29282,-0.23029 -0.51716,-0.51449 z m 293.78085,-6.50411 c 0.36544,-0.41995 0.72957,-0.76486 0.80916,-0.76649 0.0796,-0.002 -0.15431,0.34065 -0.51975,0.7606 -0.36544,0.41994 -0.72958,0.76486 -0.80916,0.76647 -0.0796,0.002 0.1543,-0.34064 0.51975,-0.76058 z m -296.25879,4.30451 -1.76557,-1.83908 1.84527,1.75308 c 1.71409,1.62845 1.98114,1.91909 1.76729,1.92344 -0.0448,9.1e-4 -0.87592,-0.82593 -1.84699,-1.83744 z m 298.80971,-7.00034 c -10e-4,-0.0516 0.41329,-0.49879 0.92076,-0.99375 l 0.92266,-0.89991 -0.83019,0.99191 c -0.77387,0.9246 -1.00851,1.13345 -1.01323,0.90175 z m -301.06005,4.49612 c -0.36967,-0.46832 -0.35965,-0.47911 0.10697,-0.11546 0.49006,0.38195 0.64838,0.62509 0.41019,0.62994 -0.0601,10e-4 -0.29282,-0.2303 -0.51716,-0.51448 z m -0.77219,-1.0343 c -0.44571,-0.57246 -0.7297,-1.11017 -0.58787,-1.11305 0.0707,-10e-4 0.3487,0.3304 0.61784,0.73744 0.5036,0.76162 0.48195,1.03308 -0.03,0.37561 z m -3.38362,-6.93121 c 0.007,-0.34965 0.0739,-0.42209 0.17116,-0.18475 0.088,0.21478 0.083,0.47363 -0.0111,0.57524 -0.0941,0.10159 -0.16614,-0.0741 -0.16001,-0.39049 z m -0.31383,-1.19363 c 0.007,-0.34964 0.0739,-0.42209 0.17117,-0.18475 0.088,0.21478 0.083,0.47364 -0.0112,0.57525 -0.0941,0.10158 -0.16615,-0.0742 -0.16002,-0.3905 z M 721.228,694.60267 c 0.007,-0.34965 0.0739,-0.42209 0.17118,-0.18475 0.088,0.21478 0.083,0.47363 -0.0112,0.57524 -0.0941,0.10159 -0.16616,-0.0741 -0.16004,-0.39049 z m -311.42712,5.43824 c 0.007,-0.34964 0.0739,-0.42208 0.17116,-0.18474 0.088,0.21478 0.083,0.47364 -0.0111,0.57523 -0.0941,0.10159 -0.16615,-0.0741 -0.16002,-0.39049 z m 311.70023,-7.36884 c -0.008,-0.41233 0.0539,-0.58235 0.13835,-0.37781 0.0845,0.20453 0.0913,0.5419 0.0153,0.74969 -0.0761,0.20781 -0.14521,0.0404 -0.15361,-0.37188 z M 407.01692,571.57096 c -1.42178,-69.84943 -1.97025,-98.42488 -1.21882,-63.50098 0.75142,34.92389 1.91469,92.07342 2.58504,126.99897 0.67035,34.92553 0.0555,6.35145 -1.36622,-63.49799 z m 152.16351,93.35432 c -0.31556,-15.50377 -0.40861,-21.80298 -0.20677,-13.99824 0.20184,7.80473 0.46002,20.48964 0.57375,28.18867 0.11372,7.69905 -0.0514,1.31335 -0.36698,-14.19043 z m 72.06394,-1.46666 c -0.31556,-15.50377 -0.40861,-21.80298 -0.20677,-13.99824 0.20184,7.80473 0.46002,20.48964 0.57375,28.18866 0.11372,7.69905 -0.0514,1.31335 -0.36698,-14.19042 z m 11.86595,-0.24149 c -0.31556,-15.50378 -0.40861,-21.80299 -0.20677,-13.99825 0.20184,7.80473 0.46002,20.48964 0.57375,28.18866 0.11372,7.69905 -0.0514,1.31336 -0.36698,-14.19041 z m 54.12029,-1.10148 c -0.31555,-15.50377 -0.40859,-21.80298 -0.20676,-13.99825 0.20183,7.80474 0.46003,20.48964 0.57375,28.18867 0.11372,7.69905 -0.0514,1.31335 -0.36699,-14.19042 z M 557.72518,593.40402 c -0.35083,-17.23559 -0.45944,-24.28721 -0.24136,-15.67029 0.21808,8.61692 0.50512,22.71875 0.63787,31.33741 0.13275,8.61865 -0.0457,1.56845 -0.39651,-15.66712 z m 72.06394,-1.46668 c -0.35083,-17.23557 -0.45944,-24.28719 -0.24136,-15.67027 0.21808,8.61691 0.50512,22.71875 0.63787,31.3374 0.13275,8.61866 -0.0457,1.56845 -0.39651,-15.66713 z m 11.86595,-0.24149 c -0.35083,-17.23558 -0.45944,-24.28721 -0.24136,-15.67029 0.21808,8.61692 0.50512,22.71876 0.63787,31.33741 0.13275,8.61865 -0.0457,1.56845 -0.39651,-15.66712 z m 54.12032,-1.10147 c -0.35083,-17.23558 -0.45945,-24.2872 -0.24137,-15.67028 0.21807,8.61692 0.50511,22.71874 0.63786,31.3374 0.13276,8.61866 -0.0457,1.56845 -0.39649,-15.66712 z m -139.64541,-68.7074 -0.5707,-28.03735 -30.17293,0.5363 -30.17293,0.53629 30.31456,-0.69057 30.31455,-0.69056 0.57378,28.18867 c 0.31558,15.50377 0.50866,28.19 0.42907,28.19162 -0.0796,0.002 -0.40152,-12.61386 -0.7154,-28.0344 z m 72.06394,-1.46667 -0.5707,-28.03734 -30.17293,0.53629 -30.17293,0.53629 30.31456,-0.69057 30.31455,-0.69057 0.57378,28.18868 c 0.31558,15.50377 0.50866,28.19001 0.42907,28.19162 -0.0796,0.002 -0.40152,-12.61385 -0.7154,-28.0344 z m 11.93524,-0.3193 -0.64615,-28.2622 27.20486,-0.55368 27.20486,-0.55368 0.50445,28.26508 0.50446,28.26509 -0.64759,-28.11217 -0.64761,-28.11217 -26.91247,0.54773 -26.91248,0.54773 0.49692,28.11523 0.49691,28.11524 z M 442.9224,495.91432 c 7.53228,-0.19782 19.77447,-0.44697 27.20486,-0.55365 7.43039,-0.10667 1.26762,0.0552 -13.69506,0.35969 -14.96267,0.30451 -21.04208,0.3918 -13.5098,0.19396 z m 198.66814,-35.6669 c 0.31466,-0.18782 1.02481,-0.77193 1.57811,-1.29801 0.67861,-0.64522 0.6157,-0.53362 -0.19331,0.34292 -0.65963,0.71468 -1.36978,1.29879 -1.57812,1.29802 -0.20834,-7.8e-4 -0.12134,-0.1551 0.19332,-0.34293 z m -162.74788,2.53539 c -0.7065,-0.68688 -0.71874,-0.72106 -0.0816,-0.22784 1.25547,0.97186 1.31561,1.02773 1.11079,1.0319 -0.10891,0.002 -0.57205,-0.35962 -1.02921,-0.80406 z m 20.2198,-0.92331 c 0.40656,-0.51055 0.87712,-1.20108 1.04571,-1.53452 0.16858,-0.33343 0.31401,-0.43241 0.32318,-0.21996 0.009,0.21245 -0.4614,0.90299 -1.04571,1.53452 -0.59172,0.63954 -0.73489,0.73699 -0.32318,0.21996 z m 122.95793,-3.01071 c -0.49247,-0.67474 -0.89792,-1.37525 -0.90102,-1.55669 -0.003,-0.18142 0.27815,0.13685 0.62501,0.7073 0.34685,0.57045 0.83679,1.26924 1.08876,1.55287 0.25197,0.28362 0.37364,0.5174 0.27038,0.51951 -0.10326,0.002 -0.59067,-0.54825 -1.08313,-1.22299 z m -1.1881,-2.50584 c 0.007,-0.34963 0.0739,-0.42208 0.17117,-0.18474 0.088,0.21478 0.083,0.47363 -0.0111,0.57524 -0.0941,0.10159 -0.16615,-0.0741 -0.16002,-0.3905 z m 23.53988,-29.85446 c -0.32899,-16.16351 -0.42763,-22.73256 -0.21919,-14.5979 0.20843,8.13465 0.4776,21.35934 0.59816,29.38818 0.12056,8.02886 -0.05,1.37322 -0.37897,-14.79028 z m -144.12793,2.93334 c -0.32563,-15.99858 -0.42288,-22.50018 -0.21609,-14.448 0.20678,8.05218 0.47321,21.14192 0.59206,29.08832 0.11885,7.94639 -0.0503,1.35824 -0.37597,-14.64032 z m 216.06237,8.05279 c -0.008,-0.41234 0.0539,-0.58235 0.13835,-0.37783 0.0845,0.20454 0.0914,0.5419 0.0153,0.74971 -0.0761,0.2078 -0.14522,0.0404 -0.15361,-0.37188 z m -311.74296,5.26966 c 0.007,-0.34962 0.0739,-0.42207 0.17116,-0.18473 0.088,0.21478 0.083,0.47363 -0.0111,0.57524 -0.0941,0.10159 -0.16615,-0.0741 -0.16001,-0.39051 z m 309.26654,-12.94436 c -0.33137,-0.75828 -0.32461,-0.77606 0.0933,-0.24456 0.24789,0.31524 0.45291,0.68233 0.45562,0.81574 0.009,0.45579 -0.19136,0.247 -0.54891,-0.57118 z m -307.39386,6.49888 c -0.003,-0.15521 0.12132,-0.36725 0.27662,-0.47121 0.16192,-0.10841 0.21289,0.011 0.11949,0.27986 -0.18183,0.52343 -0.38733,0.62271 -0.39611,0.19135 z m 1.30869,-2.46743 c 0.27723,-0.51334 0.68577,-1.09542 0.90787,-1.2935 0.2221,-0.19809 0.0505,0.2208 -0.38145,0.93084 -0.90687,1.49093 -1.27137,1.74204 -0.52642,0.36266 z m 303.61182,-7.88116 c -0.36965,-0.4683 -0.35965,-0.47911 0.10698,-0.11545 0.49005,0.38195 0.64839,0.62509 0.41018,0.62993 -0.0601,10e-4 -0.29281,-0.23029 -0.51716,-0.51448 z m -301.55473,5.01232 c 0.52823,-0.58826 1.02554,-1.07088 1.10513,-1.07251 0.0796,-0.002 -0.28749,0.47836 -0.81572,1.06661 -0.52823,0.58826 -1.02554,1.0709 -1.10513,1.07251 -0.0796,0.002 0.28748,-0.47836 0.81572,-1.06661 z m 299.21152,-7.66466 -1.61698,-1.69211 1.69749,1.60522 c 1.57702,1.4913 1.83354,1.77295 1.61871,1.77732 -0.0452,9.3e-4 -0.80985,-0.75977 -1.69922,-1.69043 z m -297.22722,5.58037 c -10e-4,-0.0516 0.41329,-0.4988 0.92076,-0.99375 l 0.92267,-0.89991 -0.8302,0.9919 c -0.77386,0.9246 -1.00851,1.13343 -1.01323,0.90176 z m 294.70383,-7.77904 -0.56507,-0.66351 0.66281,0.55801 c 0.62286,0.5244 0.79876,0.76226 0.56717,0.76697 -0.0549,10e-4 -0.35414,-0.29654 -0.66491,-0.66147 z m -292.71495,5.91915 c -10e-4,-0.0622 0.22184,-0.30306 0.49579,-0.5351 0.45143,-0.38236 0.46189,-0.37195 0.11157,0.111 -0.36791,0.50722 -0.60234,0.67091 -0.60736,0.4241 z m 1.99506,-1.55625 c -0.002,-0.0824 0.25448,-0.29968 0.56924,-0.4827 0.31476,-0.18302 0.57366,-0.26529 0.57534,-0.18282 0.002,0.0824 -0.25448,0.29968 -0.56924,0.4827 -0.31476,0.18302 -0.57367,0.26529 -0.57534,0.18282 z m 286.78994,-6.75796 c -0.40274,-0.22761 -0.59445,-0.42142 -0.42601,-0.43069 0.16841,-0.01 0.56305,0.17612 0.87699,0.41198 0.72593,0.54546 0.49782,0.55493 -0.45098,0.0187 z m -5.88638,-2.03515 c 0.20717,-0.0908 0.457,-0.0853 0.5552,0.0123 0.0982,0.0976 -0.0713,0.17204 -0.37665,0.16523 -0.33745,-0.007 -0.40746,-0.0772 -0.17855,-0.17761 z m -272.07267,5.24354 c 0.19728,-0.0872 0.52287,-0.0938 0.72354,-0.0147 0.20066,0.0791 0.0393,0.15052 -0.35869,0.15862 -0.39794,0.009 -0.56212,-0.0567 -0.36485,-0.14389 z m 270.02271,-5.49557 c 0.19728,-0.0872 0.52287,-0.0938 0.72354,-0.0147 0.20066,0.0791 0.0392,0.15052 -0.35869,0.15861 -0.39794,0.009 -0.56212,-0.0567 -0.36485,-0.14389 z m -242.83361,-5.80923 c -0.12095,-5.93762 -0.1326,-8.40992 -0.0259,-5.49403 0.10672,2.91589 0.20568,7.77393 0.21992,10.79565 0.0142,3.02172 -0.0731,0.63599 -0.19403,-5.30162 z m 144.13651,-2.4835 c -0.11583,-5.69022 -0.12429,-8.01883 -0.0188,-5.17469 0.10548,2.84414 0.20024,7.49978 0.21059,10.34585 0.0103,2.84607 -0.076,0.51905 -0.19178,-5.17116 z m 23.71516,-10.25779 c 0.007,-0.34962 0.0739,-0.42207 0.17117,-0.18473 0.088,0.21478 0.083,0.47363 -0.0111,0.57524 -0.0941,0.10159 -0.16615,-0.0741 -0.16002,-0.39051 z m -96.36343,0.3362 c -0.0117,-0.57726 0.043,-0.81463 0.12167,-0.52748 0.0787,0.28715 0.0883,0.75946 0.0214,1.04957 -0.0669,0.29012 -0.13129,0.0552 -0.14304,-0.52209 z m -47.52448,1.28494 c -0.003,-0.1552 0.12132,-0.36725 0.27663,-0.47122 0.16191,-0.10839 0.21288,0.011 0.11948,0.27987 -0.18182,0.52344 -0.38733,0.62271 -0.39611,0.19135 z m 167.14407,-3.93153 c -0.16576,-0.4242 -0.13322,-0.45931 0.1586,-0.17117 0.20193,0.19939 0.29578,0.43955 0.20855,0.53369 -0.0872,0.0942 -0.25245,-0.069 -0.36715,-0.36252 z m 24.47463,-0.88606 c -0.008,-0.41234 0.0539,-0.58236 0.13835,-0.37782 0.0845,0.20453 0.0914,0.54189 0.0153,0.7497 -0.0761,0.20779 -0.14522,0.0404 -0.15361,-0.37188 z m -190.21167,2.82123 c 0.52823,-0.58826 1.02554,-1.07089 1.10513,-1.07251 0.0796,-0.002 -0.28749,0.47836 -0.81572,1.06661 -0.52823,0.58826 -1.02554,1.07089 -1.10513,1.07251 -0.0796,0.002 0.28749,-0.47836 0.81572,-1.06661 z m 143.98783,-2.7313 c 0.466,-0.55994 1.1049,-1.16322 1.41977,-1.34064 0.31488,-0.1774 0.44467,-0.2018 0.28843,-0.0543 -0.15624,0.14759 -0.79514,0.75087 -1.41977,1.34064 l -1.1357,1.0723 z m -25.27958,0.46532 c -0.008,-0.41234 0.0539,-0.58236 0.13834,-0.37783 0.0845,0.20453 0.0914,0.5419 0.0153,0.74971 -0.0761,0.20779 -0.14521,0.0404 -0.1536,-0.37188 z m 45.94455,-1.16009 -0.71842,-0.81039 0.81069,0.71081 c 0.44588,0.39094 0.81158,0.75476 0.81267,0.80847 0.005,0.23519 -0.23347,0.0485 -0.90494,-0.70889 z m -190.07854,3.79354 c -0.008,-0.41234 0.0539,-0.58235 0.13835,-0.37782 0.0845,0.20452 0.0913,0.54189 0.0153,0.7497 -0.0761,0.20779 -0.14521,0.0404 -0.15361,-0.37188 z m 45.93565,-0.8599 c -0.36968,-0.46829 -0.35966,-0.47911 0.10696,-0.11545 0.28317,0.2207 0.51589,0.45222 0.51716,0.51449 0.005,0.24681 -0.23587,0.0928 -0.62412,-0.39904 z m 25.22144,-1.36332 c 0.007,-0.34963 0.0739,-0.42208 0.17116,-0.18474 0.088,0.21478 0.083,0.47363 -0.0111,0.57524 -0.0942,0.10159 -0.16615,-0.0741 -0.16002,-0.3905 z m 117.47645,-2.51592 c -0.2644,-0.16936 -0.3025,-0.28649 -0.0955,-0.29347 0.18953,-0.006 0.42783,0.1217 0.52957,0.28464 0.22964,0.36778 0.12945,0.36982 -0.43412,0.009 z m 26.64532,-0.71729 c 0.007,-0.34963 0.0739,-0.42209 0.17117,-0.18474 0.088,0.21477 0.083,0.47363 -0.0111,0.57523 -0.0941,0.10159 -0.16615,-0.0741 -0.16002,-0.39049 z m -183.46889,3.08497 c 2.01907,-0.0926 5.40521,-0.16165 7.52475,-0.15345 2.11954,0.009 0.46757,0.0839 -3.67104,0.16835 -4.1386,0.0844 -5.87277,0.0777 -3.85371,-0.0149 z m 144.43438,-2.9397 c 2.02846,-0.0929 5.34948,-0.16045 7.38004,-0.15021 2.03056,0.0106 0.37091,0.0863 -3.68811,0.16883 -4.05903,0.0827 -5.7204,0.0743 -3.69193,-0.0186 z m -105.4072,1.59444 c 0.007,-0.34964 0.0739,-0.42209 0.17117,-0.18475 0.088,0.21477 0.083,0.47363 -0.0111,0.57524 -0.0941,0.10159 -0.16615,-0.0742 -0.16001,-0.39049 z m 144.12178,-3.23322 c 0.007,-0.34963 0.0739,-0.42208 0.17116,-0.18473 0.088,0.21477 0.083,0.47362 -0.0111,0.57522 -0.0941,0.10159 -0.16615,-0.0741 -0.16002,-0.39049 z m -70.06857,-0.0739 c 0.007,-0.34963 0.0739,-0.42208 0.17117,-0.18473 0.088,0.21477 0.083,0.47362 -0.0111,0.57522 -0.0941,0.10159 -0.16615,-0.0741 -0.16002,-0.39049 z m -143.32805,0.24202 c -0.003,-0.16493 0.11602,-0.50487 0.26529,-0.75541 0.14927,-0.25054 0.27414,-0.32059 0.2775,-0.15565 0.003,0.16493 -0.11602,0.50487 -0.26529,0.7554 -0.14927,0.25055 -0.27414,0.32059 -0.2775,0.15566 z m 67.59248,-1.98727 c -0.29463,-0.74842 -0.2162,-0.94468 0.13734,-0.3437 0.17506,0.29756 0.25861,0.60545 0.18566,0.68416 -0.0729,0.0787 -0.21829,-0.0745 -0.323,-0.34046 z m 76.81261,-1.55171 c -0.003,-0.16493 0.11602,-0.50487 0.26529,-0.75541 0.14926,-0.25054 0.27413,-0.32059 0.27749,-0.15565 0.003,0.16493 -0.11602,0.50487 -0.26529,0.75541 -0.14926,0.25054 -0.27414,0.32059 -0.27749,0.15565 z m 1.37411,-3.17801 c 0.16366,-0.33334 0.36269,-0.60739 0.44227,-0.60901 0.0796,-0.002 0.0108,0.26978 -0.15286,0.60312 -0.16366,0.33334 -0.36269,0.60739 -0.44228,0.60901 -0.0796,0.002 -0.0108,-0.26978 0.15287,-0.60312 z m -143.85068,2.32769 c 0.16367,-0.33334 0.36269,-0.6074 0.44228,-0.60901 0.0796,-0.002 0.0108,0.26978 -0.15286,0.60311 -0.16367,0.33334 -0.36269,0.6074 -0.44228,0.60901 -0.0796,0.002 -0.0108,-0.26978 0.15286,-0.60311 z m 1.12103,-1.82284 c 0.32996,-0.50173 0.66505,-0.91355 0.74464,-0.91517 0.0796,-0.002 -0.12526,0.40756 -0.45522,0.90928 -0.32996,0.50172 -0.66505,0.91354 -0.74464,0.91517 -0.0796,0.002 0.12526,-0.40756 0.45522,-0.90928 z m 61.31415,-1.47289 c -0.36967,-0.4683 -0.35965,-0.47911 0.10697,-0.11544 0.49006,0.38194 0.64839,0.62507 0.41019,0.62992 -0.0601,0.001 -0.29282,-0.23029 -0.51716,-0.51448 z m 83.09474,-1.87944 c -10e-4,-0.0622 0.22184,-0.30306 0.49579,-0.5351 0.45143,-0.38235 0.46188,-0.37195 0.11157,0.11101 -0.36791,0.50722 -0.60234,0.67091 -0.60736,0.42409 z m 60.436,-1.94175 c -0.36967,-0.4683 -0.35965,-0.47912 0.10697,-0.11544 0.49006,0.38194 0.64838,0.62507 0.41019,0.62992 -0.0601,0.001 -0.29282,-0.23029 -0.51716,-0.51448 z m -144.4234,2.63934 c -0.36967,-0.46829 -0.35965,-0.47911 0.10697,-0.11545 0.28317,0.2207 0.51589,0.45222 0.51716,0.51449 0.005,0.24681 -0.23588,0.0928 -0.62413,-0.39904 z m -59.0141,0.67607 c 0.36546,-0.41995 0.72959,-0.76486 0.80918,-0.76648 0.0796,-0.002 -0.1543,0.34064 -0.51976,0.76059 -0.36546,0.41994 -0.72958,0.76486 -0.80917,0.76648 -0.0796,0.002 0.1543,-0.34065 0.51975,-0.76059 z m 144.41119,-3.23911 c 0.36546,-0.41994 0.72959,-0.76485 0.80917,-0.76648 0.0796,-0.002 -0.1543,0.34065 -0.51975,0.7606 -0.36546,0.41994 -0.72959,0.76485 -0.80918,0.76648 -0.0796,0.002 0.15431,-0.34065 0.51976,-0.7606 z m 56.09556,-3.3167 -2.50703,-2.57401 2.58411,2.49083 c 1.42127,1.36994 2.58487,2.52753 2.58578,2.5724 0.004,0.2182 -0.3344,-0.0985 -2.66286,-2.48922 z m -144.11996,3.00818 c -1.21104,-1.21287 -2.13678,-2.20654 -2.05719,-2.20816 0.0796,-0.002 1.13556,0.9894 2.3466,2.20227 1.21104,1.21287 2.13678,2.20653 2.05719,2.20816 -0.0796,0.002 -1.13556,-0.98941 -2.3466,-2.20227 z m -54.26807,0.95448 c 0.76714,-0.84063 1.45991,-1.52974 1.5395,-1.53135 0.0796,-0.002 -0.48295,0.68483 -1.25009,1.52545 -0.76713,0.84062 -1.4599,1.52973 -1.53949,1.53135 -0.0796,0.002 0.48295,-0.68483 1.25008,-1.52545 z m 143.98622,-2.78046 c 0.36546,-0.41993 0.72959,-0.76485 0.80918,-0.76647 0.0796,-0.002 -0.15431,0.34064 -0.51976,0.76059 -0.36546,0.41994 -0.72958,0.76485 -0.80917,0.76648 -0.0796,0.002 0.1543,-0.34065 0.51975,-0.7606 z m 1.4238,-1.17286 c -10e-4,-0.0516 0.41329,-0.49879 0.92075,-0.99375 l 0.92267,-0.89991 -0.8302,0.99191 c -0.77385,0.92459 -1.00851,1.13343 -1.01322,0.90175 z m -142.99578,1.65415 c 0.36545,-0.41994 0.72958,-0.76486 0.80917,-0.76648 0.0796,-0.002 -0.1543,0.34065 -0.51976,0.7606 -0.36546,0.41994 -0.72958,0.76485 -0.80917,0.76647 -0.0796,0.002 0.1543,-0.34064 0.51976,-0.76059 z m 48.31603,-1.76997 c -1.02727,-0.89565 -1.02764,-0.89683 -0.0868,-0.27619 0.5197,0.3428 1.02427,0.75039 1.12127,0.90573 0.28871,0.46238 0.0542,0.31966 -1.03451,-0.62954 z m 144.38264,-2.8269 c -0.36967,-0.46829 -0.35965,-0.47911 0.10697,-0.11544 0.28317,0.22069 0.51589,0.45221 0.51716,0.51448 0.005,0.24681 -0.23588,0.0928 -0.62413,-0.39904 z m -47.71402,1.08283 c -10e-4,-0.0622 0.22184,-0.30306 0.49579,-0.5351 0.45144,-0.38235 0.46189,-0.37195 0.11158,0.111 -0.36791,0.50721 -0.60234,0.67091 -0.60737,0.4241 z m 46.28349,-2.05553 c -0.63408,-0.5156 -0.64715,-0.55574 -0.0944,-0.2898 0.35288,0.16978 0.72439,0.44129 0.82558,0.60334 0.27013,0.43263 0.0931,0.35671 -0.73118,-0.31354 z m -189.14997,3.90918 c 0.19944,-0.35039 1.30062,-1.07129 1.30504,-0.85437 0.001,0.0693 -0.33434,0.36489 -0.74611,0.65687 -0.41177,0.29198 -0.66329,0.38085 -0.55893,0.1975 z m 43.39213,-1.98243 c -0.54859,-0.43686 -0.54516,-0.44246 0.0865,-0.14121 0.36181,0.17255 0.65911,0.37644 0.66067,0.45311 0.005,0.22947 -0.14677,0.16626 -0.74722,-0.3119 z m -41.80255,0.88274 c -0.002,-0.0824 0.38339,-0.36724 0.85572,-0.63284 0.47232,-0.26559 0.86014,-0.41542 0.86182,-0.33294 0.002,0.0824 -0.3834,0.36724 -0.85572,0.63282 -0.47232,0.26559 -0.86014,0.41542 -0.86182,0.33296 z m 144.70033,-3.25821 c -0.004,-0.20314 2.32198,-1.46269 2.45567,-1.3297 0.0619,0.0616 -0.46459,0.41752 -1.17009,0.79086 -0.7055,0.37334 -1.28401,0.61582 -1.28558,0.53884 z m -142.41281,1.84622 c 0.23551,-0.16474 0.55844,-0.30218 0.71762,-0.30542 0.15918,-0.003 0.0967,0.12891 -0.13879,0.29365 -0.23551,0.16473 -0.55844,0.30218 -0.71762,0.30541 -0.15917,0.003 -0.0967,-0.12889 0.13879,-0.29364 z m 175.57888,-5.57839 c 0.20716,-0.0908 0.457,-0.0853 0.5552,0.0123 0.0982,0.0977 -0.0713,0.17206 -0.37665,0.16524 -0.33745,-0.007 -0.40747,-0.0772 -0.17855,-0.17762 z m -145.58104,2.66291 c 0.20715,-0.0908 0.45699,-0.0853 0.55519,0.0123 0.0982,0.0976 -0.0713,0.17204 -0.37665,0.16523 -0.33745,-0.007 -0.40747,-0.0772 -0.17854,-0.17761 z m 121.26421,-2.46801 c 0.20716,-0.0908 0.457,-0.0853 0.5552,0.0123 0.0982,0.0977 -0.0713,0.17206 -0.37665,0.16524 -0.33745,-0.007 -0.40747,-0.0772 -0.17855,-0.17762 z m 22.86366,-0.46532 c 0.20716,-0.0908 0.457,-0.0853 0.55519,0.0123 0.0982,0.0977 -0.0713,0.17205 -0.37664,0.16523 -0.33745,-0.007 -0.40747,-0.0772 -0.17855,-0.17762 z m -165.27912,3.07004 c 0.19728,-0.0872 0.52287,-0.0938 0.72353,-0.0147 0.20067,0.0792 0.0393,0.15053 -0.35868,0.15862 -0.39795,0.009 -0.56213,-0.0566 -0.36485,-0.14389 z m 18.9619,-0.39512 c 0.28004,-0.0818 0.67085,-0.0847 0.86847,-0.006 0.19761,0.0782 -0.0315,0.14505 -0.50917,0.14866 -0.47766,0.003 -0.63934,-0.0603 -0.3593,-0.14211 z m 125.16598,-2.5382 c 0.19728,-0.0872 0.52287,-0.0938 0.72353,-0.0148 0.20067,0.0791 0.0393,0.15053 -0.35869,0.15863 -0.39794,0.009 -0.56212,-0.0567 -0.36484,-0.14389 z m 19.10128,-0.38876 c 0.19728,-0.0872 0.52287,-0.0938 0.72354,-0.0147 0.20066,0.0791 0.0393,0.15052 -0.35869,0.15862 -0.39794,0.009 -0.56212,-0.0567 -0.36485,-0.1439 z"
       id="path48" />
  </g>
</svg>
