<?xml version="1.0" encoding="UTF-8" standalone="no"?>
<svg
   xmlns:dc="http://purl.org/dc/elements/1.1/"
   xmlns:cc="http://creativecommons.org/ns#"
   xmlns:rdf="http://www.w3.org/1999/02/22-rdf-syntax-ns#"
   xmlns:svg="http://www.w3.org/2000/svg"
   xmlns="http://www.w3.org/2000/svg"
   xmlns:sodipodi="http://sodipodi.sourceforge.net/DTD/sodipodi-0.dtd"
   xmlns:inkscape="http://www.inkscape.org/namespaces/inkscape"
   version="1.1"
   id="svg2"
   width="37"
   height="20"
   viewBox="0 0 37 20"
   sodipodi:docname="list11.svg"
   inkscape:version="1.0.2 (e86c870879, 2021-01-15, custom)">
  <metadata
     id="metadata8">
    <rdf:RDF>
      <cc:Work
         rdf:about="">
        <dc:format>image/svg+xml</dc:format>
        <dc:type
           rdf:resource="http://purl.org/dc/dcmitype/StillImage" />
        <dc:title></dc:title>
      </cc:Work>
    </rdf:RDF>
  </metadata>
  <defs
     id="defs6" />
  <sodipodi:namedview
     pagecolor="#ffffff"
     bordercolor="#666666"
     borderopacity="1"
     objecttolerance="10"
     gridtolerance="10"
     guidetolerance="10"
     inkscape:pageopacity="0"
     inkscape:pageshadow="2"
     inkscape:window-width="1366"
     inkscape:window-height="705"
     id="namedview4"
     showgrid="false"
     inkscape:zoom="3.3031785"
     inkscape:cx="48.959999"
     inkscape:cy="29.320464"
     inkscape:window-x="-8"
     inkscape:window-y="-8"
     inkscape:window-maximized="1"
     inkscape:current-layer="g10"
     width="90px" />
  <g
     inkscape:groupmode="layer"
     inkscape:label="Image"
     id="g10">
    <path
       style="fill:#04abde;stroke:none;stroke-width:0.108933"
       d="m 18.807605,-7.4968617 c -1.698433,0.214351 -3.177565,1.029465 -3.904177,2.298666 -0.25834,0.451351 -0.246665,1.360761 -0.669449,1.697251 -0.773681,0.61595 -2.825726,-0.0969 -3.813914,0.26274 -1.5000286,0.546 -1.1085666,3.30420004 -0.9430896,4.38157 0.06649,0.43295 0.151708,0.91201 0.5993156,1.20461 0.962684,0.62938 3.409305,0.25884 4.59592,0.25884 h 9.12219 c 1.370518,0 3.042433,0.20907 4.378531,-0.0384 0.604375,-0.11202 0.942868,-0.47296 1.089432,-0.93719 0.333629,-1.05645996 0.516315,-3.41536 -0.185485,-4.3812 -0.946032,-1.30222 -3.150319,-0.0314 -4.392396,-0.69476 -0.505248,-0.26983 -0.533709,-1.400931 -0.814307,-1.850981 -0.90857,-1.457632 -3.009349,-2.460238 -5.062571,-2.201106 m 0.364887,1.558062 c 1.807044,-0.294642 2.314116,1.987385 0.486516,2.267655 -1.810209,0.27761 -2.310226,-1.970278 -0.486516,-2.267655 M 0.80647737,0.55803534 V 40.070865 H 37.903392 V 0.55803534 H 30.605638 C 30.604655,1.7499153 30.224087,3.0112453 28.65957,3.4719353 c -1.247185,0.36713 -3.060434,0.11054 -4.378653,0.11054 h -9.365448 c -1.428536,0 -3.539374,0.31132 -4.86517,-0.14957 C 8.5634064,2.9159253 8.2260194,1.7278353 8.2258604,0.55802534 H 0.80647737 M 10.293557,5.2410353 c 0.34432,0.2762 1.19114,0.74401 1.19114,1.17076 0,0.42673 -0.850165,0.89728 -1.19114,1.17074 L 7.1311974,10.119165 c -0.381893,0.30634 -0.914628,0.93045 -1.459552,1.03943 -0.537102,0.10742 -1.134046,-0.58323 -1.45955,-0.84431 -0.936593,-0.7512297 -2.831479,-1.6257797 -1.454673,-2.6234597 1.323678,-0.95923 1.744735,1.28861 2.914223,1.04227 0.500858,-0.10547 0.985197,-0.67251 1.337921,-0.95543 1.051705,-0.84363 2.067164,-1.84911 3.2839906,-2.53663 m 23.717697,3.80494 V 10.411845 H 10.780075 l 0.125011,-1.2094797 1.45617,-0.15639 h 3.892136 17.757862 M 10.293557,13.358925 c 0.516973,0 1.36839,0.74001 1.124888,1.15056 -0.753055,1.26968 -3.0461056,2.51672 -4.2872476,3.51224 -0.363099,0.29124 -1.017575,1.053 -1.58118,1.053 -0.463615,0 -0.921366,-0.52381 -1.216293,-0.7603 -0.800697,-0.64197 -2.823021,-1.63418 -1.700364,-2.53468 1.475313,-1.18343 1.757153,1.20109 2.997551,0.99992 0.381393,-0.0618 0.75381,-0.5005 1.013767,-0.70918 l 2.432587,-1.95126 c 0.294926,-0.23648 0.752677,-0.7603 1.2162916,-0.7603 m 23.717697,3.3945 v 1.2683 H 10.780075 v -1.2683 h 23.231179 m -25.4205066,6.43912 v 3.70738 h -4.62191 v -3.70738 h 4.62191 m -4.013764,0.48781 v 2.73176 h 3.405618 v -2.73176 h -3.405618 m 29.4342706,0.68295 v 1.36587 H 10.780075 v -1.36587 h 23.231179 m -25.4205066,6.43912 v 3.80494 h -4.62191 v -3.80494 h 4.62191 m -4.013764,3.21957 h 3.405618 v -2.73176 c -0.738862,0 -2.62156,-0.27395 -3.210598,0.10034 -0.542734,0.34479 -0.19502,2.10228 -0.19502,2.63145 m 29.4342706,-1.95126 v 1.26834 H 10.780075 v -1.26834 z"
       id="path20" />
    <path
       style="fill:#000000;stroke-width:0.0930916"
       id="path18"
       d="" />
    <path
       style="fill:#000000;stroke-width:0.0930916"
       id="path16"
       d="" />
    <path
       style="fill:#000000;stroke-width:0.0930916"
       id="path14"
       d="" />
  </g>
</svg>
