<?xml version="1.0" encoding="UTF-8" standalone="no"?>
<svg
   xmlns:dc="http://purl.org/dc/elements/1.1/"
   xmlns:cc="http://creativecommons.org/ns#"
   xmlns:rdf="http://www.w3.org/1999/02/22-rdf-syntax-ns#"
   xmlns:svg="http://www.w3.org/2000/svg"
   xmlns="http://www.w3.org/2000/svg"
   xmlns:sodipodi="http://sodipodi.sourceforge.net/DTD/sodipodi-0.dtd"
   xmlns:inkscape="http://www.inkscape.org/namespaces/inkscape"
   width="45mm"
   height="50mm"
   viewBox="0 0 45 50"
   version="1.1"
   id="svg8"
   sodipodi:docname="moneydrawing.svg"
   inkscape:version="1.0.2 (e86c870879, 2021-01-15, custom)">
  <defs
     id="defs2" />
  <sodipodi:namedview
     id="base"
     pagecolor="#ffffff"
     bordercolor="#666666"
     borderopacity="1.0"
     inkscape:pageopacity="0.0"
     inkscape:pageshadow="2"
     inkscape:zoom="0.35"
     inkscape:cx="-150"
     inkscape:cy="560"
     inkscape:document-units="mm"
     inkscape:current-layer="layer1"
     inkscape:document-rotation="0"
     showgrid="false"
     inkscape:window-width="1267"
     inkscape:window-height="728"
     inkscape:window-x="78"
     inkscape:window-y="0"
     inkscape:window-maximized="0"
     width="30mm" />
  <metadata
     id="metadata5">
    <rdf:RDF>
      <cc:Work
         rdf:about="">
        <dc:format>image/svg+xml</dc:format>
        <dc:type
           rdf:resource="http://purl.org/dc/dcmitype/StillImage" />
        <dc:title></dc:title>
      </cc:Work>
    </rdf:RDF>
  </metadata>
  <g
     inkscape:label="Layer 1"
     inkscape:groupmode="layer"
     id="layer1">
    <path
       style="fill:#b4c700;fill-opacity:1;stroke-width:0.0855996"
       d="m 6.3615781,46.558644 -0.05075,-0.064 -0.5844913,-0.3205 -0.58449,-0.32051 h -0.09527 -0.09527 l -0.02541,-0.0721 -0.02541,-0.0721 -0.304907,-0.19033 -0.304907,-0.19032 -0.493872,-0.37483 -0.493873,-0.37483 -0.578283,-0.55512 -0.578282,-0.55512 -0.607517,-0.75416 -0.607515,-0.75415 -0.345763,-0.57675 -0.345762,-0.57675 -0.2732,-0.52868 -0.2732,-0.52869 -0.242037,-0.67287 -0.242038,-0.67287 -0.06427,-0.19225 -0.06427,-0.19225 -0.118722,-0.52869 -0.118723,-0.52868 -0.11578,-0.74092 -0.115781,-0.74091 0.0049,-1.22964 0.0049,-1.22964 0.129873,-0.93093 0.129873,-0.93092 0.05581,-0.0704 0.05581,-0.0704 v -0.22093 -0.22093 l 0.116136,-0.45995 0.116135,-0.45996 0.124367,-0.52868 0.124369,-0.52869 0.09604,-0.28837 0.09604,-0.28837 0.197046,-0.56468 0.197045,-0.56468 v -0.13223 -0.13222 h 0.05945 0.05945 l 0.150177,-0.48866 0.150177,-0.48865 0.09528,-0.0999 0.09528,-0.0999 v -0.18047 -0.18048 h 0.07623 0.07623 v -0.0959 -0.0959 l 0.546825,-1.12966 0.546825,-1.12968 0.501291,-0.94633 0.501292,-0.94633 0.11434,-0.2114 0.11434,-0.21139 0.430195,-0.76477 0.430195,-0.76476 0.160561,-0.18312 0.160562,-0.18312 v -0.0858 -0.0858 l 0.172959,-0.21169 0.172959,-0.21169 0.19904,-0.33643 0.19904,-0.33644 0.180644,-0.2519 0.180644,-0.25191 0.145636,-0.22872 0.145636,-0.22872 0.220205,-0.33643 0.220206,-0.33644 0.4726513,-0.66779 0.472652,-0.6678 1.308948,-1.68606 1.308947,-1.68607 6.2374899,-0.005 6.237491,-0.005 0.190565,0.24621 0.190568,0.24621 0.539055,0.76693 0.539056,0.76694 0.185096,0.27713 0.185099,0.27713 0.07623,0.1084 0.07623,0.10839 0.266793,0.38692 0.266794,0.38691 0.26679,0.41941 0.266793,0.41941 0.208409,0.29808 0.208405,0.29808 0.0013,0.0767 0.0013,0.0767 0.178013,0.21169 0.178007,0.21169 0.06973,0.15521 0.06973,0.15522 0.228679,0.3647 0.228681,0.3647 0.171509,0.23909 0.17151,0.23909 7.7e-5,0.0581 7.7e-5,0.0581 0.199368,0.28837 0.19937,0.28838 0.190877,0.37695 0.190877,0.37694 0.137433,0.18603 0.13743,0.18602 0.287048,0.59052 0.287048,0.59053 0.06179,0.032 0.06179,0.0321 v 0.13617 0.13618 h 0.07477 0.07477 l 0.04783,0.24032 0.04783,0.24031 h 0.06797 0.06796 v 0.10253 0.10254 l 0.182711,0.306 0.182711,0.30599 0.401313,0.86512 0.401311,0.86512 0.08296,0.0721 0.08296,0.0721 0.304908,0.0983 0.304907,0.0983 0.13236,0.0939 0.132363,0.0939 h 0.104023 0.104019 l 0.37343,0.24905 0.37343,0.24905 0.120342,0.13545 0.120342,0.13545 h 0.150264 0.150261 l 0.09147,-0.11536 0.09147,-0.11534 v -0.1819 -0.18189 l -0.152196,-0.24399 -0.152194,-0.24399 -0.08269,-0.38726 -0.08269,-0.38725 0.04964,-0.33367 0.04964,-0.33367 0.190684,-0.38091 0.190683,-0.38091 -0.212108,-0.39958 -0.212109,-0.39958 9.64e-4,-0.52869 9.65e-4,-0.52869 0.139224,-0.33136 0.139224,-0.33137 0.314231,-0.37058 0.314228,-0.37059 0.409978,-0.28077 0.409978,-0.28076 0.161723,-0.0567 0.161723,-0.0567 0.152451,-0.0819 0.152453,-0.0819 0.343022,-0.11271 0.343019,-0.11271 0.381133,-0.0896 0.381133,-0.0896 0.876605,-0.101 0.876609,-0.101 0.686037,0.0568 0.686041,0.0568 0.419247,0.10173 0.419247,0.10173 0.457359,0.14191 0.457361,0.14192 0.228679,0.10375 0.228679,0.10374 0.495473,0.28917 0.495476,0.28918 0.386926,0.49768 0.386926,0.49768 0.124056,0.47827 0.124055,0.47828 -0.113577,0.41571 -0.113575,0.41571 -0.107626,0.26245 -0.107627,0.26246 0.140414,0.37482 0.14041,0.37483 0.08527,0.33014 0.08528,0.33013 -0.130421,0.43886 -0.130418,0.43887 -0.04215,0.0481 -0.04215,0.0481 -0.110697,0.2706 -0.110697,0.27059 0.07343,0.0658 0.07343,0.0658 0.143883,0.3845 0.143882,0.3845 0.06501,0.16691 0.06501,0.16692 v 0.18788 0.18788 l -0.07623,0.0594 -0.07623,0.0594 v 0.18996 0.18996 l -0.131636,0.26097 -0.131637,0.26096 -0.07542,0.0666 -0.07542,0.0666 0.163787,0.36749 0.163787,0.36749 0.116593,0.43306 0.116596,0.43307 -0.117345,0.43054 -0.117346,0.43054 -0.150158,0.3071 -0.150162,0.30709 0.178866,0.36578 0.178862,0.36577 0.08425,0.3598 0.08424,0.35979 -0.104527,0.43797 -0.104524,0.43798 -0.154968,0.27444 -0.154968,0.27444 v 0.0611 0.0611 l 0.155228,0.26476 0.155226,0.26477 0.102376,0.48938 0.102373,0.48939 -0.06587,0.13111 -0.06587,0.13111 -0.0013,0.18317 -0.0013,0.18318 -0.190565,0.31507 -0.190568,0.31506 v 0.1506 0.1506 h 0.07623 0.07623 v 0.11259 0.11259 l 0.103434,0.15175 0.103434,0.15176 0.08101,0.41834 0.081,0.41836 -0.102074,0.35064 -0.102074,0.35065 -0.101422,0.2636 -0.101418,0.26359 -0.05717,8.1e-4 -0.05717,8.1e-4 v 0.098 0.098 l 0.173339,0.35856 0.173339,0.35856 0.0974,0.35703 0.0974,0.35703 -0.121287,0.4505 -0.121291,0.45051 -0.161645,0.28627 -0.161646,0.28627 0.07498,0.15581 0.07498,0.15582 0.117217,0.28837 0.117213,0.28838 0.08156,0.31701 0.08155,0.31702 -0.07634,0.3078 -0.07633,0.30779 -0.122947,0.28493 -0.122946,0.28493 -0.285347,0.34231 -0.285351,0.3423 -0.317713,0.21386 -0.31771,0.21385 h -1.669784 -1.669784 v -0.0849 -0.0849 l -0.148907,-0.0491 -0.148914,-0.0491 -0.136938,0.13096 -0.136938,0.13096 -3.782967,0.003 -3.782966,0.003 -0.271542,-0.14307 -0.271539,-0.14308 -0.113458,0.14308 -0.113456,0.14307 h -0.500954 -0.500918 l 0.0023,-0.12016 0.0023,-0.12015 0.181897,-0.37328 0.181894,-0.37328 -0.03998,-0.13138 -0.03998,-0.13137 -1.230526,-0.003 -1.230527,-0.003 -0.762272,-0.17321 -0.762266,-0.17322 -0.11434,-0.05 -0.114339,-0.0499 -0.457358,-0.17637 -0.457362,-0.17637 -0.150357,-0.12571 -0.150358,-0.12571 h -0.123679 -0.123676 l -0.126155,0.17578 -0.126155,0.17579 v 0.35766 0.35767 l 0.247738,0.31872 0.247735,0.31873 0.495475,0.29459 0.495473,0.29459 -9.15355,0.007 -9.1535489,0.007 -0.05075,-0.064 z m 29.3889209,-0.42907 0.784054,-0.10856 0.07242,-0.0837 0.07241,-0.0837 h 0.173779 0.17378 l 0.325506,-0.1529 0.325506,-0.1529 0.398974,-0.24228 0.398976,-0.24228 0.268009,-0.37409 0.268005,-0.37409 v -0.14522 -0.14521 l -0.09528,-0.21126 -0.09528,-0.21126 -0.08984,-0.12387 -0.08984,-0.12387 h -0.08167 -0.08167 v 0.0849 0.0849 l -0.171509,0.0495 -0.171509,0.0495 -0.266794,0.12024 -0.266793,0.12024 -0.152454,0.0824 -0.152454,0.0824 -0.381133,0.10192 -0.381133,0.10191 -0.457358,0.0905 -0.457361,0.0905 h -1.257745 -1.257738 l -0.457362,-0.0905 -0.457358,-0.0905 -0.381133,-0.10259 -0.381133,-0.10259 -0.228682,-0.10578 -0.228679,-0.10578 -0.152454,-0.0821 -0.152454,-0.0821 -0.27096,-0.13575 -0.270963,-0.13574 -0.184665,0.18856 -0.184666,0.18857 3.22e-4,0.3514 3.21e-4,0.3514 0.184977,0.26711 0.184974,0.26711 0.498878,0.3011 0.498874,0.30111 0.152453,0.0789 0.152454,0.0789 0.343019,0.10859 0.343019,0.10858 0.724154,0.12201 0.724152,0.12201 0.702367,0.0114 0.702363,0.0114 0.784054,-0.10857 z m 4.824121,-0.0505 0.342967,-0.0593 v -0.0831 -0.0831 l 0.171509,-4e-4 0.17151,-4.1e-4 0.218336,-0.1436 0.218336,-0.14359 h 0.105627 0.105627 v -0.0897 -0.0896 l 0.16161,-0.0647 0.161614,-0.0647 0.257633,-0.33454 0.257637,-0.33455 v -0.27476 -0.27477 l -0.18191,-0.26668 -0.18191,-0.26669 -0.256392,0.15808 -0.256396,0.15808 -0.278313,0.15131 -0.278313,0.15131 h -0.147284 -0.147287 l -0.05675,0.0721 -0.05675,0.0721 -0.470482,0.0961 -0.470482,0.0961 -0.170628,0.42664 -0.170629,0.42664 -0.07711,0.0972 -0.07711,0.0972 v 0.10192 0.10191 l 0.199284,0.27102 0.199284,0.27102 0.1819,-0.0576 0.181904,-0.0576 z m -11.843446,-2.03835 0.04796,-0.0615 0.09601,-0.38449 0.09601,-0.3845 0.154212,-0.277 0.154206,-0.277 -0.07894,-0.15556 -0.07894,-0.15556 -0.257361,0.0297 -0.25736,0.0297 -0.686041,0.0109 -0.686037,0.0109 -0.762268,-0.10346 -0.76227,-0.10345 -0.381133,-0.11869 -0.381133,-0.11869 -0.71832,-0.33701 -0.718323,-0.33701 -0.139227,0.21682 -0.13923,0.21682 v 0.35499 0.35499 l 0.247738,0.29712 0.247738,0.29712 0.397655,0.25042 0.397655,0.25043 h 0.139741 0.139742 l 0.07242,0.0838 0.07242,0.0839 0.533586,0.15779 0.533587,0.15778 0.762269,0.0845 0.762266,0.0845 0.571701,-0.0484 0.571701,-0.0484 z m 7.400137,-0.93648 0.784375,-0.15406 0.07242,-0.0863 0.07241,-0.0862 h 0.176927 0.176923 l 0.512927,-0.309 0.512927,-0.30899 0.244497,-0.30685 0.244501,-0.30685 0.05039,-0.25315 0.05038,-0.25315 -0.130894,-0.18239 -0.130894,-0.1824 -0.182,0.0873 -0.182003,0.0873 -0.325008,0.19912 -0.325008,0.19911 -0.304908,0.0967 -0.304904,0.0967 -0.507995,0.14191 -0.507996,0.1419 -0.902197,0.0745 -0.9022,0.0745 -0.876605,-0.0767 -0.876606,-0.0767 -0.419247,-0.10357 -0.419247,-0.10358 -0.419247,-0.14857 -0.419244,-0.14858 -0.38223,-0.22857 -0.382226,-0.22857 h -0.165278 -0.165279 l -0.05013,0.19919 -0.05013,0.19918 0.04521,0.22716 0.04521,0.22717 0.326239,0.33711 0.326239,0.3371 0.378642,0.20927 0.378641,0.20925 0.266793,0.0946 0.266794,0.0946 0.724155,0.17187 0.724151,0.17187 1.083178,0.0105 1.083175,0.0104 z m 4.458593,0.009 0.442023,-0.14509 0.52387,-0.25232 0.523875,-0.25232 0.333675,-0.40318 0.333679,-0.40318 -0.0026,-0.28082 -0.0026,-0.28082 -0.150672,-0.22811 -0.150673,-0.2281 -0.246982,0.0605 -0.246983,0.0604 -0.419244,0.15323 -0.419247,0.15325 -0.152454,0.073 -0.152454,0.073 -0.431769,0.17047 -0.431773,0.17047 -0.139928,0.34618 -0.139928,0.34619 -0.09528,0.12849 -0.09528,0.12849 v 0.0985 0.0985 l 0.130774,0.27917 0.130778,0.27917 h 0.208525 0.208527 l 0.442019,-0.14507 z m -11.784594,-2.33014 0.15164,-0.45659 0.07275,-0.16691 0.07275,-0.16692 v -0.13863 -0.13862 l -0.127505,-0.16079 -0.127508,-0.16079 -0.539474,0.059 -0.539477,0.0591 -0.876608,-0.0938 -0.876609,-0.0938 -0.343019,-0.0921 -0.343021,-0.0921 -0.343019,-0.11194 -0.343019,-0.11194 -0.152454,-0.0746 -0.152453,-0.0746 -0.288437,-0.15751 -0.288434,-0.15751 h -0.124811 -0.124808 l -0.139397,0.15908 -0.139401,0.15909 v 0.35489 0.35489 l 0.133398,0.1934 0.133395,0.19339 0.381133,0.29397 0.381136,0.29397 0.495473,0.21519 0.495472,0.21519 0.381133,0.0872 0.381133,0.0872 0.457363,0.0755 0.45736,0.0755 0.861836,0.0146 0.861835,0.0147 z m 7.447365,-0.30253 0.480388,-0.10469 0.438685,-0.18161 0.438685,-0.1816 0.414894,-0.24051 0.414894,-0.24051 0.200435,-0.23609 0.200439,-0.23608 0.08541,-0.20126 0.08541,-0.20125 v -0.14716 -0.14717 l -0.236575,-0.33978 -0.236575,-0.33978 h -0.162 -0.161996 l -0.497089,0.22952 -0.49709,0.22952 -0.571701,0.14838 -0.571698,0.14838 -0.893487,0.11391 -0.893485,0.1139 -0.783501,-0.11318 -0.783498,-0.11318 -0.647926,-0.14629 -0.647927,-0.14629 -0.116844,-0.0759 -0.116841,-0.0759 -0.244362,-0.0677 -0.244359,-0.0677 -0.04349,-0.0887 -0.04349,-0.0887 h -0.213776 -0.213787 l -0.202502,0.25537 -0.202506,0.25537 -0.04277,0.2149 -0.04277,0.2149 0.11605,0.283 0.11605,0.283 0.252229,0.23757 0.252229,0.23758 0.266793,0.14823 0.266794,0.14823 0.228679,0.0971 0.228682,0.0971 0.26679,0.10676 0.266794,0.10675 0.567126,0.10115 0.567129,0.10115 0.04234,0.0534 0.04235,0.0534 1.296193,-0.0464 1.296193,-0.0464 z m 4.10855,-0.25093 0.442022,-0.14493 0.266791,-0.10116 0.266793,-0.10116 0.48449,-0.30553 0.48449,-0.30553 0.220606,-0.31685 0.220609,-0.31684 v -0.224 -0.22401 l -0.157987,-0.25327 -0.157986,-0.25328 h -0.146921 -0.146921 v 0.0961 0.0961 H 42.015336 41.89346 l -0.240202,0.13073 -0.240199,0.13073 -0.425947,0.15764 -0.425944,0.15765 -0.183868,0.003 -0.183868,0.003 -0.119737,0.1171 -0.119741,0.11709 -0.143057,0.50466 -0.143053,0.50465 h -0.06117 -0.06117 v 0.0995 0.0995 l 0.123107,0.23693 0.123107,0.23693 h 0.06374 0.06374 l 0.442023,-0.14494 z m -11.593004,-2.04337 0.08501,-0.0706 0.05723,-0.24031 0.05723,-0.24031 0.18172,-0.30599 0.181721,-0.306 v -0.12923 -0.12924 l -0.163344,-0.17636 -0.16334,-0.17637 -0.313073,0.0753 -0.313077,0.0753 -0.609813,0.001 -0.609815,10e-4 -0.647928,-0.10744 -0.647928,-0.10744 -0.419247,-0.11205 -0.419244,-0.11204 -0.381133,-0.14483 -0.381133,-0.14484 -0.323133,-0.18199 -0.323134,-0.18198 h -0.052 -0.052 l -0.139397,0.15908 -0.139401,0.15909 v 0.40543 0.40543 l 0.285852,0.31084 0.285849,0.31085 0.381133,0.21507 0.381133,0.21507 0.228679,0.10305 0.228682,0.10305 0.571698,0.15247 0.571703,0.15248 0.266793,0.0325 0.266795,0.0325 0.990945,0.0139 0.990948,0.0139 0.08501,-0.0706 z m 7.385199,-0.98114 0.762266,-0.18263 0.362078,-0.11846 0.362077,-0.11847 v -0.0799 -0.0799 l 0.133395,-0.004 0.133399,-0.004 0.236787,-0.16419 0.236787,-0.16418 0.220571,-0.24601 0.220574,-0.24601 0.09528,-0.20928 0.09528,-0.20928 v -0.12819 -0.12819 l -0.260813,-0.38424 -0.260817,-0.38424 -0.368054,-0.23723 -0.368054,-0.23723 -0.457362,-0.17369 -0.457358,-0.17368 -0.231885,-0.0863 -0.231887,-0.0863 -0.797172,-0.1055 -0.797175,-0.10551 -0.876608,0.0598 -0.876606,0.0598 -0.381133,0.0519 -0.381133,0.0519 -0.152453,0.0761 -0.152454,0.0761 -0.381133,0.11394 -0.381133,0.11393 -0.491383,0.30061 -0.491383,0.30061 -0.231039,0.27843 -0.231036,0.27843 v 0.39012 0.39013 l 0.296819,0.32355 0.296815,0.32356 h 0.10164 0.101641 v 0.0729 0.073 l 0.514531,0.2236 0.514528,0.2236 0.114339,0.0578 0.114343,0.0578 0.724152,0.16408 0.724151,0.16408 1.067174,0.007 1.067174,0.007 0.762265,-0.18263 z m 4.497374,0.005 0.533586,-0.17965 0.457359,-0.26297 0.457361,-0.26297 0.0254,-0.0838 0.0254,-0.0838 h 0.07889 0.07889 l 0.218446,-0.3124 0.218442,-0.3124 0.0013,-0.21967 0.0013,-0.21966 -0.123107,-0.23693 -0.123107,-0.23693 h -0.151222 -0.151223 l -0.240202,0.13248 -0.240198,0.13248 -0.343022,0.1489 -0.343019,0.14891 -0.457361,0.11702 -0.457358,0.11702 -0.17151,0.13249 -0.171509,0.1325 v 0.12755 0.12755 l -0.228682,0.39809 -0.22868,0.39809 v 0.0653 0.0654 l 0.126155,0.17579 0.126155,0.17578 0.274034,-0.002 0.274037,-0.002 0.533586,-0.17965 z m -19.797971,-0.28104 0.09719,-0.0778 -0.02096,-1.62696 -0.02096,-1.62697 -2.991896,-0.0251 -2.991895,-0.0251 v -1.58349 -1.58349 l 2.229629,-0.0255 2.229629,-0.0255 v -1.58606 -1.58606 l -2.210572,-0.0481 -2.210573,-0.0481 v -1.29768 -1.29769 l 0.179313,-0.4592 0.179314,-0.45921 0.272365,-0.26172 0.272366,-0.26174 0.653607,8.1e-4 0.653608,8.2e-4 0.326578,0.26677 0.326577,0.26678 0.302292,0.3928 0.302292,0.39281 v 0.0845 0.0845 h 0.152453 0.152454 v -0.0961 -0.0961 h 0.08167 0.08167 l 0.09682,-0.12016 0.09682,-0.12016 0.25139,-0.24031 0.25139,-0.24031 0.465776,-0.46877 0.465779,-0.46877 0.0254,-0.0839 0.0254,-0.084 h 0.07532 0.07532 l 0.119181,-0.15029 0.119185,-0.1503 -0.103621,-0.24416 -0.103621,-0.24415 -0.625605,-0.74678 -0.625607,-0.74677 -0.557858,-0.33907 -0.557858,-0.33907 -0.381133,-0.12424 -0.381133,-0.12425 -1.1434,0.002 -1.143399,0.002 -0.391726,0.1049 -0.391727,0.10489 -0.14186,0.0922 -0.14186,0.0922 -0.34302,0.20026 -0.343019,0.20025 -0.304907,0.33804 -0.304907,0.33803 -0.05717,0.002 -0.05717,0.002 v 0.10049 0.10049 l -0.18353,0.23144 -0.183529,0.23144 -0.27927,0.73219 -0.27927,0.73219 -0.08051,0.49791 -0.0805,0.4979 -0.03338,1.60668 -0.03338,1.60668 -0.738224,0.0275 -0.738224,0.0274 v 1.58606 1.58605 l 0.744958,0.0275 0.744957,0.0275 -0.02081,1.68613 -0.0208,1.68612 -0.41632,0.1848 -0.416321,0.18479 h -0.136324 -0.136322 v 0.0961 0.0961 h -0.190541 -0.190566 v 1.28166 1.28167 l 0.05082,0.0641 0.05082,0.0641 5.227877,-0.002 5.227876,-0.002 0.09719,-0.0778 z m 7.920266,-1.83246 0.08988,-0.1535 0.04561,-0.28838 0.04561,-0.28837 0.230747,-0.3845 0.230746,-0.3845 -1.566803,-0.026 -1.566808,-0.026 v -0.0803 -0.0803 l -0.494439,-0.0582 -0.494434,-0.0582 -0.693216,-0.29288 -0.693217,-0.29287 -0.146995,-0.0992 -0.146991,-0.0992 -0.187491,0.17206 -0.187492,0.17206 -0.0022,0.39734 -0.0023,0.39735 0.305127,0.34762 0.305123,0.34762 h 0.114121 0.114121 v 0.0762 0.0762 l 0.438302,0.1743 0.438303,0.1743 0.177705,0.0874 0.177698,0.0874 0.508339,0.10792 0.508341,0.10792 0.647928,0.0679 0.647926,0.0679 0.533587,-0.0478 0.533587,-0.0478 0.08988,-0.1535 z m 11.492759,-0.77955 0.232492,-0.001 0.477738,-0.18887 0.477739,-0.18886 0.423121,-0.26126 0.423124,-0.26127 0.223481,-0.32097 0.223483,-0.32098 -0.0026,-0.26099 -0.0026,-0.261 -0.143078,-0.21628 -0.143082,-0.21628 h -0.12221 -0.122214 l -0.132363,0.0915 -0.132363,0.0915 -0.266793,0.13842 -0.266793,0.1384 -0.343019,0.10858 -0.343019,0.10857 -0.381133,0.10232 -0.381133,0.10232 -0.679999,0.0639 -0.680003,0.0639 -0.03009,0.11498 -0.03009,0.11498 0.328946,0.25962 0.328946,0.25963 0.336509,0.46989 0.336505,0.4699 0.07893,-0.0995 0.07893,-0.0995 z m -10.972824,-2.06376 0.686041,-0.12972 0.381133,-0.10357 0.381133,-0.10357 0.152454,-0.0797 0.15245,-0.0797 0.427729,-0.26216 0.427725,-0.26216 0.239256,-0.29498 0.239257,-0.29498 v -0.35838 -0.35839 l -0.153174,-0.22271 -0.153174,-0.22272 -0.170789,0.10538 -0.170789,0.10539 -0.266794,0.13941 -0.266793,0.13942 -0.228679,0.10736 -0.228679,0.10735 -0.381133,0.10263 -0.381133,0.10263 -0.990948,0.14112 -0.990945,0.14112 -1.181513,-0.11141 -1.181517,-0.11142 -0.07241,-0.0842 -0.07242,-0.0842 -0.156263,4.1e-4 -0.156267,4.1e-4 -0.381133,-0.15926 -0.381133,-0.15926 -0.266793,-0.13609 -0.266794,-0.13609 -0.170786,-0.10538 -0.170789,-0.10538 -0.153174,0.22271 -0.153177,0.22271 v 0.37521 0.37521 l 0.244458,0.28157 0.244459,0.28156 0.422523,0.25249 0.422527,0.2525 0.116841,0.0731 0.116844,0.0731 0.264292,0.0682 0.264289,0.0682 0.228682,0.0922 0.228679,0.0922 0.647928,0.0794 0.647928,0.0794 0.762266,0.006 0.762266,0.006 0.68604,-0.12972 z m 10.366821,-0.73237 0.686041,-0.0939 0.266793,-0.10454 0.266794,-0.10455 0.343018,-0.14006 0.343022,-0.14006 0.26553,-0.16018 0.26553,-0.16018 0.325227,-0.37611 0.325226,-0.3761 v -0.26536 -0.26536 l -0.191269,-0.28665 -0.191265,-0.28664 -0.380059,0.23121 -0.38006,0.2312 h -0.110214 -0.110215 l -0.04168,0.085 -0.04167,0.085 -0.363013,0.0682 -0.363016,0.0682 -0.07623,0.0785 -0.07623,0.0785 -1.06717,0.1173 -1.067174,0.11729 -0.838494,-0.0643 -0.838491,-0.0643 -0.419247,-0.0858 -0.419248,-0.0858 -0.381132,-0.10989 -0.381133,-0.10988 -0.246134,-0.14056 -0.246134,-0.14056 -0.307852,-0.13697 -0.307853,-0.13697 -0.108424,0.0525 -0.108424,0.0525 -0.125373,0.24129 -0.125377,0.2413 0.04261,0.20723 0.0426,0.20722 0.173481,0.24501 0.17348,0.24501 0.390849,0.29957 0.390845,0.29957 0.409531,0.16261 0.409532,0.1626 0.228682,0.0827 0.228679,0.0827 0.724152,0.0995 0.724155,0.0995 0.304907,0.0286 0.304905,0.0286 0.495472,-0.0349 0.495476,-0.0349 z m -9.985537,-2.29498 0.762115,-0.18999 0.266793,-0.0856 0.266794,-0.0856 0.432364,-0.25253 0.432365,-0.25252 0.272731,-0.32437 0.272732,-0.32436 v -0.38129 -0.38129 l -0.233453,-0.26231 -0.233454,-0.2623 -0.431426,-0.28227 -0.431429,-0.28227 h -0.120252 -0.120255 l -0.07241,-0.0834 -0.07242,-0.0834 -0.571698,-0.15058 -0.571701,-0.15058 -0.504262,-0.10245 -0.504259,-0.10245 H 27.806605 27.10003 l -0.504263,0.10024 -0.504266,0.10024 -0.571697,0.15616 -0.571701,0.15615 -0.07242,0.08 -0.07242,0.08 h -0.138649 -0.138648 l -0.403429,0.27148 -0.403426,0.27148 -0.24306,0.27309 -0.243057,0.2731 v 0.37031 0.37031 l 0.254869,0.31211 0.254868,0.31212 0.488342,0.29525 0.488342,0.29525 0.571701,0.16315 0.571697,0.16314 0.343024,0.0824 0.343019,0.0824 1.181665,0.0105 1.181665,0.0105 z m 9.604404,-0.57463 0.609816,-0.0765 0.495472,-0.12024 0.495473,-0.12025 0.07623,-0.0664 0.07623,-0.0664 0.438302,-0.18167 0.438303,-0.18166 v -0.0762 -0.0762 h 0.105148 0.105151 l 0.314096,-0.38439 0.314099,-0.38439 v -0.27353 -0.27354 l -0.180218,-0.26447 -0.180216,-0.26448 -0.219973,0.13858 -0.219973,0.13859 -0.609815,0.24874 -0.609812,0.24873 -0.592924,0.15058 -0.59292,0.15058 h -1.41704 -1.417037 l -0.65797,-0.15737 -0.657973,-0.15737 -0.152454,-0.0728 -0.152454,-0.0728 -0.381133,-0.16061 -0.381133,-0.16062 -0.202743,-0.13824 -0.202747,-0.13823 -0.119345,0.0578 -0.119343,0.0577 -0.116214,0.29377 -0.116213,0.29376 v 0.12136 0.12136 l 0.285848,0.38523 0.285853,0.38523 0.414701,0.26189 0.414701,0.26189 0.271339,0.0902 0.271337,0.0902 0.457361,0.14316 0.457358,0.14315 0.495473,0.0752 0.495472,0.0752 0.686041,0.006 0.68604,0.006 0.609812,-0.0765 z m 0.431465,-3.02795 0.66014,-0.13648 0.330805,-0.10617 0.330805,-0.10616 0.152453,-0.0776 0.152451,-0.0776 0.419247,-0.24433 0.419247,-0.24432 0.285849,-0.31113 0.285852,-0.31112 v -0.29261 -0.2926 l -0.126154,-0.17579 -0.126155,-0.17579 h -0.06233 -0.06233 l -0.402275,0.22557 -0.402272,0.22556 -0.419247,0.15433 -0.419247,0.15434 -0.228679,0.0586 -0.228679,0.0586 -0.381133,0.0832 -0.381136,0.0832 h -1.410193 -1.410192 l -0.381133,-0.0828 -0.381133,-0.0828 -0.377898,-0.10328 -0.377899,-0.10327 -0.460596,-0.20177 -0.460592,-0.20176 -0.168828,-0.13385 -0.168828,-0.13385 H 33.80184 33.693586 l -0.129569,0.24937 -0.129569,0.24937 0.04522,0.22717 0.04521,0.22718 0.170873,0.22978 0.17087,0.22978 0.434181,0.30298 0.434184,0.303 h 0.14133 0.141326 l 0.07242,0.0819 0.07241,0.082 0.38078,0.12939 0.380776,0.12939 0.572054,0.11172 0.572055,0.11172 0.990948,0.0117 0.990945,0.0117 z m 0.02048,-2.7383 0.234093,-0.0905 0.457358,-0.1059 0.457362,-0.1059 0.209623,-0.0548 0.209624,-0.0548 v -0.0852 -0.0852 h 0.08768 0.08769 l 0.407712,-0.25154 0.407715,-0.25155 0.228753,-0.32854 0.228756,-0.32855 v -0.27686 -0.27686 l -0.360778,-0.40047 -0.360779,-0.40047 -0.321079,-0.18444 -0.321079,-0.18446 h -0.08144 -0.08144 l -0.132363,-0.0897 -0.132363,-0.0898 -0.381133,-0.11451 -0.381133,-0.1145 -0.533587,-0.0983 -0.533587,-0.0983 -0.95283,0.009 -0.952834,0.009 -0.609812,0.0908 -0.609816,0.0908 -0.419244,0.14751 -0.419247,0.1475 -0.266793,0.1168 -0.266794,0.11679 -0.07241,0.083 -0.07242,0.083 h -0.132128 -0.132125 l -0.386216,0.47438 -0.386213,0.47438 v 0.24284 0.24284 l 0.292302,0.36418 0.292301,0.36418 0.364772,0.22878 0.364768,0.22879 0.391045,0.18209 0.391045,0.18208 0.457358,0.0587 0.457362,0.0587 0.114339,0.0803 0.11434,0.0803 1.404781,0.003 1.404782,0.003 0.23409,-0.0905 z M 9.5841381,8.7277445 l -0.224383,-0.3098 v -0.11476 -0.11475 l -0.05717,-0.032 -0.05717,-0.0321 -0.247737,-0.40289 -0.247736,-0.40289 v -0.10177 -0.10176 l -0.05717,-0.002 -0.05717,-0.002 -0.266794,-0.5738897 -0.266793,-0.57387 -0.05717,-0.002 -0.05717,-0.002 v -0.0893 -0.0893 l -0.291774,-0.55951 -0.291775,-0.55951 -0.0519,-0.14419 -0.0519,-0.14419 -0.163382,-0.33644 -0.163384,-0.33643 -0.287742,-0.72094 -0.287743,-0.72093 -0.05196,-0.26435 -0.05195,-0.26434 h -0.06796 -0.06796 v -0.18051 -0.18051 l -0.11434,-0.34509 -0.11434,-0.34508002 v -0.0992 -0.0992 h 1.7894393 1.789438 l 0.7415696,0.63403002 0.741571,0.63403 0.38466,0.23998 0.38466,0.23998 0.415616,0.005 0.415617,0.005 0.02904,-0.10985 0.02904,-0.10986 h 0.07365 0.07365 l 0.249041,-0.3124 0.249041,-0.31241 0.255577,-0.45659002 0.255575,-0.45659 h 2.578784 2.578784 v 0.0961 0.0961 l 0.138025,0.17405 0.138024,0.17406002 0.109714,0.18828 0.10971,0.18828 0.315877,0.31054 0.315877,0.31053 h 0.117928 0.117928 l 0.04711,0.0961 0.04711,0.0961 0.205127,-10e-4 0.205126,-10e-4 0.337064,-0.148 0.337064,-0.14801 0.234637,-0.20577 0.234633,-0.20578 0.465814,-0.50994002 0.465814,-0.50995 h 1.61136 1.611365 v 0.15035 0.15035 l -0.180066,0.49849002 -0.180064,0.4985 -0.05889,0.24031 -0.05889,0.24031 -0.04753,0.0481 -0.04753,0.0481 -0.31225,0.76899 -0.312254,0.769 -0.325423,0.67287 -0.32542,0.67288 -0.352037,0.67287 -0.352033,0.67287 -0.03872,0.0481 -0.03872,0.0481 -0.09577,0.19225 -0.09577,0.1922497 -0.05284,0.14418 -0.05284,0.14419 -0.142298,0.19225 -0.142297,0.19225 -0.163604,0.33643 -0.163607,0.33644 -0.09863,0.12765 -0.09864,0.12765 -0.07841,0.18476 -0.07841,0.18475 H 16.022595 9.8085094 Z"
       id="path24" />
  </g>
</svg>
